<svg width="61" height="19" viewBox="0 0 61 19" fill="none" xmlns="http://www.w3.org/2000/svg">
<path d="M3.555 5.82496C5.27706 7.84226 6.93717 9.77297 8.58853 11.7067C8.91986 12.0909 9.15304 12.3629 9.49108 12.9114C9.74677 13.3165 10.2707 14.1871 9.7906 14.3626C9.37947 14.4647 9.07194 14.4834 8.43403 13.8703C6.79391 12.2791 5.39471 10.4586 3.9964 8.66054C2.76299 7.07086 1.84576 5.84155 0.834095 4.37181C0.361845 3.68578 0.541123 3.19923 1.23117 2.91405C1.85087 2.65869 2.48107 2.38514 3.13992 2.25399C5.50956 1.76765 7.88388 1.34522 10.2646 0.89763C10.5602 0.839657 10.7866 0.777506 11.1487 0.760265C11.5884 0.742751 11.9073 0.706353 12.0179 1.12695C12.1278 1.52647 11.6247 1.79376 11.3438 1.87635C9.01369 2.62222 4.18051 4.07761 3.9415 4.21559C5.2716 4.92579 6.48758 5.61166 7.74255 6.22999C16.4989 10.4956 25.4637 14.0999 35.1095 15.5189C42.7435 16.6425 50.3551 16.8328 57.9589 15.8327C58.408 15.7768 58.8688 15.7587 59.3133 15.7509C59.9148 15.731 60.2346 15.8291 60.2744 16.1442C60.2697 16.7442 59.8669 16.8638 59.5544 16.9871C58.9356 17.243 58.2513 17.3663 57.588 17.4892C48.7022 19.0377 39.8144 18.4778 30.9343 16.7307C21.8194 14.9381 13.4225 11.164 5.29615 6.6593C4.87593 6.40514 3.78139 5.87484 3.555 5.82496Z" fill="#F67ACB"/>
</svg>
